<svg width="41" height="15" viewBox="0 0 41 15" fill="none" xmlns="http://www.w3.org/2000/svg">
<path d="M20.78 5.72976C20.836 5.33776 20.944 4.99176 21.104 4.69176C21.264 4.38776 21.466 4.13376 21.71 3.92976C21.958 3.72576 22.24 3.57176 22.556 3.46776C22.876 3.35976 23.22 3.30576 23.588 3.30576C23.952 3.30576 24.288 3.35776 24.596 3.46176C24.904 3.56576 25.168 3.71376 25.388 3.90576C25.612 4.09776 25.786 4.32976 25.91 4.60176C26.034 4.87376 26.096 5.17576 26.096 5.50776C26.096 5.77976 26.06 6.02376 25.988 6.23976C25.92 6.45176 25.82 6.63776 25.688 6.79776C25.56 6.95776 25.404 7.09376 25.22 7.20576C25.036 7.31776 24.83 7.40976 24.602 7.48176C25.162 7.62576 25.582 7.87376 25.862 8.22576C26.146 8.57376 26.288 9.00976 26.288 9.53376C26.288 9.92976 26.212 10.2858 26.06 10.6018C25.912 10.9178 25.708 11.1878 25.448 11.4118C25.188 11.6318 24.884 11.8018 24.536 11.9218C24.192 12.0378 23.822 12.0958 23.426 12.0958C22.97 12.0958 22.58 12.0398 22.256 11.9278C21.932 11.8118 21.658 11.6538 21.434 11.4538C21.21 11.2538 21.026 11.0178 20.882 10.7458C20.738 10.4698 20.616 10.1718 20.516 9.85176L20.978 9.65976C21.098 9.60776 21.214 9.59376 21.326 9.61776C21.442 9.64176 21.526 9.70776 21.578 9.81576C21.63 9.92776 21.694 10.0618 21.77 10.2178C21.85 10.3738 21.958 10.5238 22.094 10.6678C22.23 10.8118 22.402 10.9338 22.61 11.0338C22.822 11.1338 23.09 11.1838 23.414 11.1838C23.714 11.1838 23.976 11.1358 24.2 11.0398C24.428 10.9398 24.616 10.8118 24.764 10.6558C24.916 10.4998 25.03 10.3258 25.106 10.1338C25.182 9.94176 25.22 9.75176 25.22 9.56376C25.22 9.33176 25.19 9.11976 25.13 8.92776C25.07 8.73576 24.958 8.56976 24.794 8.42976C24.63 8.28976 24.404 8.17976 24.116 8.09976C23.832 8.01976 23.466 7.97976 23.018 7.97976V7.20576C23.386 7.20176 23.698 7.16176 23.954 7.08576C24.214 7.00976 24.424 6.90576 24.584 6.77376C24.748 6.64176 24.866 6.48376 24.938 6.29976C25.014 6.11576 25.052 5.91176 25.052 5.68776C25.052 5.43976 25.012 5.22376 24.932 5.03976C24.856 4.85576 24.75 4.70376 24.614 4.58376C24.478 4.46376 24.316 4.37376 24.128 4.31376C23.944 4.25376 23.744 4.22376 23.528 4.22376C23.312 4.22376 23.11 4.25576 22.922 4.31976C22.738 4.38376 22.574 4.47376 22.43 4.58976C22.29 4.70176 22.172 4.83576 22.076 4.99176C21.98 5.14776 21.912 5.31976 21.872 5.50776C21.82 5.64776 21.754 5.74176 21.674 5.78976C21.598 5.83376 21.486 5.84576 21.338 5.82576L20.78 5.72976ZM31.3409 8.89776V5.35176C31.3409 5.24776 31.3449 5.13376 31.3529 5.00976C31.3609 4.88576 31.3729 4.75976 31.3889 4.63176L28.2569 8.89776H31.3409ZM33.5789 8.89776V9.50976C33.5789 9.57376 33.5589 9.62776 33.5189 9.67176C33.4829 9.71576 33.4249 9.73776 33.3449 9.73776H32.2769V11.9998H31.3409V9.73776H27.5249C27.4449 9.73776 27.3749 9.71576 27.3149 9.67176C27.2589 9.62376 27.2229 9.56576 27.2069 9.49776L27.0989 8.95176L31.2809 3.40176H32.2769V8.89776H33.5789ZM39.8439 10.9858C39.9599 10.9858 40.0519 11.0198 40.1199 11.0878C40.1879 11.1558 40.2219 11.2438 40.2219 11.3518V11.9998H34.4859V11.6338C34.4859 11.5578 34.5019 11.4798 34.5339 11.3998C34.5659 11.3198 34.6159 11.2458 34.6839 11.1778L37.4379 8.41176C37.6659 8.17976 37.8739 7.95776 38.0619 7.74576C38.2499 7.52976 38.4099 7.31376 38.5419 7.09776C38.6739 6.88176 38.7759 6.66376 38.8479 6.44376C38.9199 6.21976 38.9559 5.98176 38.9559 5.72976C38.9559 5.47776 38.9159 5.25776 38.8359 5.06976C38.7559 4.87776 38.6459 4.71976 38.5059 4.59576C38.3699 4.47176 38.2079 4.37976 38.0199 4.31976C37.8319 4.25576 37.6299 4.22376 37.4139 4.22376C37.1939 4.22376 36.9919 4.25576 36.8079 4.31976C36.6239 4.38376 36.4599 4.47376 36.3159 4.58976C36.1759 4.70176 36.0579 4.83576 35.9619 4.99176C35.8659 5.14776 35.7979 5.31976 35.7579 5.50776C35.7099 5.64776 35.6439 5.74176 35.5599 5.78976C35.4799 5.83376 35.3659 5.84576 35.2179 5.82576L34.6599 5.72976C34.7159 5.33776 34.8239 4.99176 34.9839 4.69176C35.1479 4.38776 35.3519 4.13376 35.5959 3.92976C35.8439 3.72576 36.1259 3.57176 36.4419 3.46776C36.7579 3.35976 37.0999 3.30576 37.4679 3.30576C37.8319 3.30576 38.1719 3.35976 38.4879 3.46776C38.8039 3.57576 39.0779 3.73376 39.3099 3.94176C39.5419 4.14576 39.7239 4.39576 39.8559 4.69176C39.9879 4.98776 40.0539 5.32376 40.0539 5.69976C40.0539 6.01976 40.0059 6.31776 39.9099 6.59376C39.8139 6.86576 39.6839 7.12576 39.5199 7.37376C39.3559 7.62176 39.1659 7.86376 38.9499 8.09976C38.7379 8.33576 38.5119 8.57376 38.2719 8.81376L36.0039 11.1298C36.1639 11.0858 36.3259 11.0518 36.4899 11.0278C36.6539 10.9998 36.8119 10.9858 36.9639 10.9858H39.8439Z" fill="#939699"/>
<path fill-rule="evenodd" clip-rule="evenodd" d="M11.1346 11.9998V14.9998L8.36064 11.9998H2.25C1.42157 11.9998 0.75 11.3282 0.75 10.4998V2.99976C0.75 2.17133 1.42157 1.49976 2.25 1.49976H12.75C13.5784 1.49976 14.25 2.17133 14.25 2.99976V10.4998C14.25 11.3282 13.5784 11.9998 12.75 11.9998H11.1346Z" fill="#BCBFC2"/>
</svg>
