<svg width="34" height="15" viewBox="0 0 34 15" fill="none" xmlns="http://www.w3.org/2000/svg">
<path opacity="0.4" d="M26.108 11.184V12H21.5V11.184H23.342V5.322C23.342 5.146 23.348 4.968 23.36 4.788L21.83 6.102C21.778 6.146 21.726 6.174 21.674 6.186C21.622 6.194 21.574 6.194 21.53 6.186C21.486 6.178 21.444 6.162 21.404 6.138C21.368 6.114 21.34 6.088 21.32 6.06L20.984 5.598L23.546 3.384H24.416V11.184H26.108ZM30.4289 11.208C30.7169 11.208 30.9769 11.162 31.2089 11.07C31.4449 10.978 31.6449 10.85 31.8089 10.686C31.9769 10.522 32.1049 10.328 32.1929 10.104C32.2849 9.88 32.3309 9.636 32.3309 9.372C32.3309 9.092 32.2869 8.84 32.1989 8.616C32.1109 8.388 31.9849 8.196 31.8209 8.04C31.6609 7.88 31.4689 7.758 31.2449 7.674C31.0209 7.59 30.7749 7.548 30.5069 7.548C30.2189 7.548 29.9589 7.598 29.7269 7.698C29.4949 7.794 29.2969 7.926 29.1329 8.094C28.9729 8.258 28.8489 8.45 28.7609 8.67C28.6769 8.886 28.6349 9.112 28.6349 9.348C28.6349 9.624 28.6749 9.876 28.7549 10.104C28.8349 10.332 28.9509 10.528 29.1029 10.692C29.2589 10.856 29.4469 10.984 29.6669 11.076C29.8909 11.164 30.1449 11.208 30.4289 11.208ZM29.8049 6.624C29.7289 6.72 29.6549 6.814 29.5829 6.906C29.5149 6.994 29.4489 7.082 29.3849 7.17C29.5889 7.03 29.8129 6.922 30.0569 6.846C30.3009 6.77 30.5669 6.732 30.8549 6.732C31.2029 6.732 31.5309 6.79 31.8389 6.906C32.1469 7.018 32.4149 7.184 32.6429 7.404C32.8749 7.62 33.0589 7.888 33.1949 8.208C33.3309 8.524 33.3989 8.886 33.3989 9.294C33.3989 9.69 33.3269 10.058 33.1829 10.398C33.0389 10.738 32.8369 11.034 32.5769 11.286C32.3209 11.538 32.0109 11.736 31.6469 11.88C31.2869 12.024 30.8889 12.096 30.4529 12.096C30.0209 12.096 29.6289 12.028 29.2769 11.892C28.9249 11.752 28.6249 11.556 28.3769 11.304C28.1329 11.048 27.9429 10.74 27.8069 10.38C27.6749 10.016 27.6089 9.61 27.6089 9.162C27.6089 8.786 27.6909 8.386 27.8549 7.962C28.0229 7.534 28.2889 7.078 28.6529 6.594L30.8369 3.66C30.8929 3.588 30.9689 3.528 31.0649 3.48C31.1649 3.428 31.2789 3.402 31.4069 3.402H32.3549L29.8049 6.624Z" fill="white"/>
<g opacity="0.4">
<path fill-rule="evenodd" clip-rule="evenodd" d="M11.1346 12V15L8.36064 12H2.25C1.42157 12 0.75 11.3284 0.75 10.5V3C0.75 2.17157 1.42157 1.5 2.25 1.5H12.75C13.5784 1.5 14.25 2.17157 14.25 3V10.5C14.25 11.3284 13.5784 12 12.75 12H11.1346Z" fill="white"/>
</g>
</svg>
